<?xml version="1.0" encoding="UTF-8"?>
<svg width="53px" height="22px" viewBox="0 0 53 22" version="1.1" xmlns="http://www.w3.org/2000/svg" xmlns:xlink="http://www.w3.org/1999/xlink">
    <!-- Generator: sketchtool 41 (35326) - http://www.bohemiancoding.com/sketch -->
    <desc>Created with sketchtool.</desc>
    <defs>
        <polygon id="path-1" points="12.4902227 0.0187976584 0.0923389021 0.0187976584 0.0923389021 12.8192535 12.4902227 12.8192535 12.4902227 0.0187976584"></polygon>
        <polygon id="path-3" points="0.0214008875 5.80330393 4.21091198 5.80330393 4.21091198 0.0495114853 0.0214008875 0.0495114853"></polygon>
        <polygon id="path-5" points="0.0556080777 5.80330393 4.24506472 5.80330393 4.24506472 0.0495114853 0.0556080777 0.0495114853"></polygon>
    </defs>
    <g id="Page-1" stroke="none" stroke-width="1" fill="none" fill-rule="evenodd">
        <g id="ABOUT-Header" transform="translate(-16.000000, -12.000000)">
            <g id="Page-1" transform="translate(16.000000, 12.000000)">
                <g id="Group-3" transform="translate(8.854415, 0.107361)">
                    <mask id="mask-2" fill="white">
                        <use xlink:href="#path-1"></use>
                    </mask>
                    <g id="Clip-2"></g>
                    <path d="M9.9776611,1.28916612 C9.09664678,0.609548767 8.05271122,0.171651638 6.94945107,0.0187471949 C9.52583294,1.74888872 10.2081289,5.23452968 8.47329594,7.80413173 C6.7385895,10.3737338 3.24375179,11.0542343 0.66749642,9.32396657 C0.466374702,9.18897667 0.27423389,9.04111858 0.0923389021,8.88140157 C1.47552506,12.156105 5.25863723,13.6924667 8.54198091,12.3129204 C11.8253246,10.9333741 13.3657399,7.16021732 11.9825537,3.88551383 C11.5502053,2.86198764 10.8594344,1.96752189 9.9776611,1.28916612 Z" id="Fill-1" fill="#FFD000" mask="url(#mask-2)"></path>
                </g>
                <path d="M9.37935561,6.33059717 C9.82093795,7.21118546 10.8944726,7.5679625 11.7773842,7.12754219 C12.6602959,6.68724804 13.0180143,5.61641231 12.576432,4.73582402 C12.1349761,3.85536189 11.061315,3.49845869 10.1784033,3.938879 C9.81284248,4.12117844 9.52102625,4.4230764 9.35152745,4.79398322 C9.15483294,5.21951679 9.1357327,5.70560657 9.29840095,6.14514376 C9.32243437,6.20443839 9.35026253,6.27130254 9.37935561,6.33059717" id="Fill-4" fill="#FFD000"></path>
                <path d="M12.3784726,2.47391062 L12.3784726,2.47391062 C14.0724487,3.24423613 14.8196348,5.23830183 14.0472768,6.92782022 C13.7649475,7.54549362 13.3017351,8.06337541 12.7187351,8.41346603 C14.726284,8.38798196 16.3331074,6.74413304 16.3075561,4.74186702 C16.2821313,2.73960101 14.6339451,1.13700601 12.6263962,1.16249009 C11.6319189,1.17510597 10.6861408,1.59332233 10.009284,2.3199969 C10.7913819,2.08117833 11.6340692,2.13593124 12.3784726,2.47391062" id="Fill-6" fill="#FFD000"></path>
                <polygon id="Fill-8" fill="#FFFFFF" points="2.57157518 19.0322506 1.090358 15.9741618 0 15.9741618 0 21.6285983 1.10680191 21.6285983 1.10680191 18.333331 2.1971599 20.4780303 2.94599045 20.4780303 4.02875895 18.333331 4.02875895 21.6285983 5.13556086 21.6285983 5.13556086 15.9741618 4.04520286 15.9741618"></polygon>
                <g id="Group-12" transform="translate(5.818616, 15.877209)">
                    <mask id="mask-4" fill="white">
                        <use xlink:href="#path-3"></use>
                    </mask>
                    <g id="Clip-11"></g>
                    <path d="M2.82455847,4.51377195 L2.82455847,4.51377195 C2.64405489,4.71285051 2.38512649,4.82298712 2.11620525,4.81529144 C1.84462768,4.82323944 1.58291647,4.71322898 1.39899761,4.51377195 C1.18396181,4.27533185 1.12830549,4.00913682 1.12830549,2.92543289 C1.12830549,1.84172897 1.18396181,1.57553394 1.39899761,1.33709384 C1.58304296,1.13776297 1.84462768,1.02787867 2.11620525,1.03557435 C2.38512649,1.02800483 2.6439284,1.1382676 2.82455847,1.33709384 C3.03959427,1.57553394 3.1028401,1.84172897 3.1028401,2.92543289 C3.1028401,4.00913682 3.03579952,4.27533185 2.82455847,4.51377195 M2.11620525,0.0502742743 C1.53940334,0.0346305854 0.982207637,0.260202486 0.579331742,0.672237065 C0.00632458234,1.24373634 0.02150358,1.95148711 0.02150358,2.92795607 C0.02150358,3.90442504 -2.91464769e-13,4.6121758 0.579331742,5.18367508 C1.43352983,6.00988893 2.79129117,6.00988893 3.64548926,5.18367508 C4.21849642,4.6121758 4.21090692,3.90442504 4.21090692,2.92795607 C4.21090692,1.95148711 4.21849642,1.24373634 3.64548926,0.672237065 C3.24564916,0.260328645 2.6908568,0.0346305854 2.11620525,0.0502742743" id="Fill-10" fill="#FFFFFF" mask="url(#mask-4)"></path>
                </g>
                <g id="Group-15" transform="translate(10.625298, 15.877209)">
                    <mask id="mask-6" fill="white">
                        <use xlink:href="#path-5"></use>
                    </mask>
                    <g id="Clip-14"></g>
                    <path d="M2.85871122,4.51377195 C2.67770167,4.71184123 2.41889976,4.82109474 2.150358,4.81276826 C1.8791599,4.82046395 1.61795465,4.71045349 1.43441527,4.51124877 C1.21937947,4.27280868 1.16372315,4.00661365 1.16372315,2.92290972 C1.16372315,1.83920579 1.21937947,1.57301076 1.43441527,1.33457067 C1.61808115,1.13549211 1.8791599,1.02548165 2.150358,1.03305118 C2.41927924,1.02535549 2.67820764,1.13549211 2.85871122,1.33457067 C3.07374702,1.57301076 3.13699284,1.83920579 3.13699284,2.92290972 C3.13699284,4.00661365 3.07627685,4.27533185 2.86124105,4.51377195 L2.85871122,4.51377195 Z M2.150358,0.0502742743 C1.57355609,0.0346305854 1.01636038,0.260202486 0.613484487,0.672237065 C0.040477327,1.24373634 0.0556563246,1.95148711 0.0556563246,2.92795607 C0.0556563246,3.90442504 0.0392124105,4.6121758 0.613484487,5.18367508 C1.46768258,6.00988893 2.82544391,6.00988893 3.679642,5.18367508 C4.25264916,4.6121758 4.24505967,3.90442504 4.24505967,2.92795607 C4.24505967,1.95148711 4.25264916,1.24373634 3.679642,0.672237065 C3.27980191,0.260454804 2.72500955,0.0347567442 2.150358,0.0502742743 L2.150358,0.0502742743 Z" id="Fill-13" fill="#FFFFFF" mask="url(#mask-6)"></path>
                </g>
                <polygon id="Fill-16" fill="#FFFFFF" points="18.8093079 19.4372329 16.5640811 15.9741744 15.5761814 15.9741744 15.5761814 21.628611 16.6829833 21.628611 16.6829833 18.1579829 18.92821 21.628611 19.9161098 21.628611 19.9161098 15.9741744 18.8093079 15.9741744"></polygon>
                <path d="M22.7153699,16.9052136 C23.2719332,16.9052136 23.5590692,17.2546734 23.6703819,17.7075834 L24.7923628,17.7075834 C24.5937709,16.5242141 23.7652506,15.9211751 22.7065155,15.9211751 C22.1327494,15.9103254 21.5797279,16.1351404 21.1772315,16.5431379 C20.6042243,17.1146372 20.6194033,17.8223879 20.6194033,18.7988569 C20.6194033,19.7753259 20.6029594,20.4830766 21.1772315,21.0545759 C21.5801074,21.4615641 22.1331289,21.6856221 22.7065155,21.6740155 C23.7576611,21.6740155 24.5937709,21.0697149 24.7923628,19.8876072 L23.6691169,19.8876072 C23.5578043,20.3405172 23.2706683,20.689977 22.714105,20.689977 C22.4461957,20.700322 22.1872673,20.5928348 22.0057518,20.3960271 C21.790716,20.157587 21.7274702,19.8913919 21.7274702,18.8001185 C21.7274702,17.708845 21.790716,17.44265 22.0057518,17.2042099 C22.1866348,17.0052575 22.4461957,16.8957517 22.7153699,16.9052136" id="Fill-18" fill="#FFFFFF"></path>
                <path d="M26.6505251,19.7034153 L26.6505251,19.7034153 L27.3664678,17.6470272 L28.0571122,19.7084617 L26.6505251,19.7084617 L26.6505251,19.7034153 Z M26.9098329,15.9754234 L26.9098329,15.9754234 L24.8505489,21.6311215 L26.0054177,21.6311215 L26.34821,20.6306824 L28.3594272,20.6306824 L28.6933652,21.6311215 L29.8520286,21.6311215 L27.7775656,15.9754234 L26.9098329,15.9754234 Z" id="Fill-20" fill="#FFFFFF"></path>
                <path d="M32.6892363,18.3257615 L32.0200955,18.2311424 C31.8264368,18.2112093 31.6431504,18.133874 31.4938902,18.0091029 C31.3840955,17.9032557 31.323506,17.7564069 31.3269212,17.6041332 C31.3269212,17.2155642 31.6140573,16.8888129 32.2035084,16.8888129 C32.5829833,16.8888129 33.0079952,16.9367533 33.3659666,17.277382 L34.0667303,16.5872935 C33.5810024,16.1192444 33.0155847,15.927483 32.2351313,15.927483 C31.0094272,15.927483 30.2605967,16.6339722 30.2605967,17.6432425 C30.2605967,18.1201226 30.3959427,18.4847215 30.6666348,18.7547013 C30.937327,19.0246811 31.2801193,19.1521015 31.7658473,19.2227504 L32.4501671,19.3173695 C32.6361098,19.3259483 32.813957,19.3955879 32.9561337,19.5154388 C33.0787041,19.6429853 33.1420764,19.815949 33.1306921,19.992319 C33.1306921,20.445229 32.7803103,20.6912386 32.1276134,20.6912386 C31.6014081,20.6912386 31.1156802,20.5726494 30.7577088,20.2143584 L30.0329117,20.9309403 C30.5894749,21.49487 31.2434368,21.6778003 32.10358,21.6778003 C33.2900716,21.6778003 34.2058711,21.0583607 34.2058711,19.9620409 C34.2058711,19.4574057 34.0705251,19.0486513 33.76821,18.7635324 C33.5304057,18.5452777 33.2040573,18.397672 32.6892363,18.3257615" id="Fill-22" fill="#FFFFFF"></path>
                <path d="M36.8697852,20.689977 C36.6018759,20.700322 36.3429475,20.5928348 36.161432,20.3960271 C35.9463962,20.157587 35.8831504,19.8913919 35.8831504,18.8001185 C35.8831504,17.708845 35.9463962,17.44265 36.161432,17.2042099 C36.3413031,17.0086638 36.5975752,16.9009242 36.8634606,16.9089983 C37.4212888,16.9089983 37.7071599,17.2584582 37.8184726,17.7113682 L38.9417184,17.7113682 C38.7431265,16.5279988 37.9146062,15.9249599 36.8558711,15.9249599 C36.2860263,15.917138 35.737685,16.1418268 35.3379714,16.5469226 C34.7649642,17.1184219 34.7801432,17.8261727 34.7801432,18.8026417 C34.7801432,19.7791106 34.7649642,20.4868614 35.3379714,21.0583607 C35.7418592,21.4643396 36.2952601,21.6868837 36.8685203,21.6740155 C37.9196659,21.6740155 38.7557757,21.0697149 38.9543675,19.8876072 L37.8210024,19.8876072 C37.7134845,20.3430404 37.4263484,20.689977 36.8697852,20.689977" id="Fill-24" fill="#FFFFFF"></path>
                <path d="M40.8074702,19.698369 L40.8074702,19.698369 L41.5246778,17.6419809 L42.217852,19.698369 L40.8087351,19.698369 L40.8074702,19.698369 Z M41.0604535,15.9741618 L38.9986396,21.6285983 L40.1522434,21.6285983 L40.4950358,20.6281592 L42.5100477,20.6281592 L42.8439857,21.6285983 L43.9988544,21.6285983 L41.9231265,15.9741618 L41.0604535,15.9741618 Z" id="Fill-26" fill="#FFFFFF"></path>
                <path d="M47.185179,20.3001464 L47.185179,20.3001464 C46.980895,20.5419928 46.6730143,20.6719363 46.3566587,20.6496062 L45.5205489,20.6496062 L45.5205489,16.9594619 L46.3566587,16.9594619 C46.6714964,16.9394026 46.9773532,17.0689677 47.1813842,17.3089217 C47.3888305,17.5612392 47.4204535,17.9207918 47.4204535,18.7786715 C47.4204535,19.6365512 47.3926253,20.0402593 47.1813842,20.2951 L47.185179,20.3001464 Z M47.958043,16.515383 C47.578568,16.1369066 47.0498329,15.9754234 46.4616468,15.9754234 L44.4150119,15.9754234 L44.4150119,21.6298599 L46.4616468,21.6298599 C47.0510979,21.6298599 47.5848926,21.4633303 47.958043,21.0899004 C48.5905012,20.4591064 48.5310501,19.6289817 48.5310501,18.7786715 C48.5310501,17.9283613 48.5942959,17.1499616 47.958043,16.515383 L47.958043,16.515383 Z" id="Fill-28" fill="#FFFFFF"></path>
                <polygon id="Fill-30" fill="#FFFFFF" points="52.969642 16.9594619 52.969642 15.9741618 49.2356086 15.9741618 49.2356086 21.6285983 52.969642 21.6285983 52.969642 20.6445599 50.3424105 20.6445599 50.3424105 19.2706907 52.5800477 19.2706907 52.5800477 18.2853906 50.3424105 18.2853906 50.3424105 16.9594619"></polygon>
            </g>
        </g>
    </g>
</svg>
